<svg width="74" height="10" viewBox="0 0 74 10" fill="none" xmlns="http://www.w3.org/2000/svg">
<path d="M1.824 9.00001L2.172 7.21801L2.232 7.08601L2.076 7.09801H0.858002V6.16801H2.352L2.856 3.54001L2.922 3.38401L2.718 3.40201H1.566V2.45401H3.072L3.42 0.576009H4.596L4.242 2.45401H6.744L7.104 0.576009H8.28L7.914 2.45401H9.258V3.39001H7.74L7.206 6.16201H8.544V7.09801H7.05L6.684 9.00001H5.508L5.85 7.24801L5.91 7.08601L5.742 7.09801H3.762C3.814 6.94601 3.886 6.79801 3.978 6.65401C4.074 6.51001 4.202 6.39201 4.362 6.30001C4.522 6.20801 4.726 6.16201 4.974 6.16201H6.03L6.522 3.57601L6.6 3.38401L6.39 3.40201H4.068L3 9.00001H1.824Z" fill="#9D3FF6"/>
<path d="M13.2367 9.14401C12.9447 9.14401 12.6687 9.07801 12.4087 8.94601C12.1487 8.81401 11.9387 8.60601 11.7787 8.32201C11.6187 8.03801 11.5387 7.66801 11.5387 7.21201V2.79601H12.9967V7.24201C12.9967 7.47001 13.0447 7.65801 13.1407 7.80601C13.2367 7.95401 13.3967 8.02801 13.6207 8.02801C13.7047 8.02801 13.7827 8.01801 13.8547 7.99801C13.9267 7.97401 14.0167 7.95601 14.1247 7.94401C14.3327 7.91601 14.5147 7.96601 14.6707 8.09401C14.8307 8.21801 14.9787 8.37201 15.1147 8.55601C14.7067 8.78401 14.3547 8.93801 14.0587 9.01801C13.7627 9.10201 13.4887 9.14401 13.2367 9.14401ZM15.8827 9.00001C15.6947 8.78401 15.5687 8.57001 15.5047 8.35801C15.4447 8.14601 15.4147 7.92001 15.4147 7.68001V2.79601H16.8787V7.48801C16.8787 7.70801 16.8927 7.94401 16.9207 8.19601C16.9527 8.44801 17.0027 8.71601 17.0707 9.00001H15.8827Z" fill="#9D3FF6"/>
<path d="M21.6071 9.14401C21.1031 9.14401 20.6591 9.05201 20.2751 8.86801C19.8911 8.68401 19.5711 8.43601 19.3151 8.12401C19.0591 7.81201 18.8671 7.45801 18.7391 7.06201C18.6111 6.66201 18.5471 6.24601 18.5471 5.81401C18.5471 5.15801 18.6791 4.59401 18.9431 4.12201C19.2071 3.65001 19.5691 3.28801 20.0291 3.03601C20.4931 2.78001 21.0191 2.65201 21.6071 2.65201C22.0391 2.65201 22.4271 2.74201 22.7711 2.92201C23.1151 3.09801 23.3951 3.34401 23.6111 3.66001C23.8271 3.97201 23.9591 4.33801 24.0071 4.75801C24.0591 5.17801 24.0051 5.62801 23.8451 6.10801H20.4371C20.5211 5.85201 20.6431 5.63601 20.8031 5.46001C20.9671 5.28401 21.1691 5.19601 21.4091 5.19601H22.6511C22.6831 4.92801 22.6551 4.68001 22.5671 4.45201C22.4831 4.22401 22.3491 4.04201 22.1651 3.90601C21.9811 3.77001 21.7631 3.70201 21.5111 3.70201C21.2471 3.70201 20.9991 3.77801 20.7671 3.93001C20.5351 4.07801 20.3471 4.30601 20.2031 4.61401C20.0631 4.92201 19.9931 5.31201 19.9931 5.78401C19.9931 6.24801 20.0671 6.65001 20.2151 6.99001C20.3671 7.33001 20.5771 7.59201 20.8451 7.77601C21.1131 7.96001 21.4211 8.05201 21.7691 8.05201C22.0451 8.05201 22.3131 8.02001 22.5731 7.95601C22.8371 7.88801 23.1411 7.77201 23.4851 7.60801L23.8571 8.60401C23.4451 8.80401 23.0511 8.94401 22.6751 9.02401C22.3031 9.10401 21.9471 9.14401 21.6071 9.14401Z" fill="#9D3FF6"/>
<path d="M28.1248 9.14401C27.5768 9.14401 27.0668 9.02801 26.5948 8.79601C26.1268 8.56001 25.7488 8.20201 25.4608 7.72201C25.1768 7.24201 25.0348 6.63201 25.0348 5.89201C25.0348 5.18001 25.1788 4.58401 25.4668 4.10401C25.7548 3.62401 26.1348 3.26201 26.6068 3.01801C27.0788 2.77401 27.5848 2.65201 28.1248 2.65201C28.3408 2.65201 28.5768 2.67401 28.8328 2.71801C29.0928 2.75801 29.3428 2.82401 29.5828 2.91601L29.2228 3.90001C29.0188 3.84801 28.8228 3.81001 28.6348 3.78601C28.4468 3.75801 28.2768 3.74401 28.1248 3.74401C27.8288 3.74401 27.5648 3.82801 27.3328 3.99601C27.1008 4.16001 26.9168 4.40201 26.7808 4.72201C26.6488 5.03801 26.5828 5.42801 26.5828 5.89201C26.5828 6.36001 26.6488 6.75401 26.7808 7.07401C26.9168 7.39001 27.1008 7.63201 27.3328 7.80001C27.5648 7.96801 27.8288 8.05201 28.1248 8.05201C28.2968 8.05201 28.4828 8.02801 28.6828 7.98001C28.8828 7.92801 29.1148 7.84801 29.3788 7.74001L29.7448 8.72401C29.4288 8.87201 29.1308 8.97801 28.8508 9.04201C28.5708 9.11001 28.3288 9.14401 28.1248 9.14401Z" fill="#9D3FF6"/>
<path d="M30.1013 9.99001V9.00001H35.4173V9.99001H30.1013Z" fill="#9D3FF6"/>
<path d="M36.6302 9.00001V4.53601C36.6302 4.25601 36.6162 3.96601 36.5882 3.66601C36.5602 3.36601 36.5102 3.07601 36.4382 2.79601H37.5422C37.6302 2.88001 37.7082 3.00401 37.7762 3.16801C37.8442 3.33201 37.8942 3.51401 37.9262 3.71401L37.9382 3.97201L38.0522 3.71401C38.2122 3.39801 38.4282 3.14801 38.7002 2.96401C38.9722 2.78001 39.2482 2.68801 39.5282 2.68801C39.6442 2.68801 39.7582 2.70001 39.8702 2.72401C39.9822 2.74401 40.1042 2.77401 40.2362 2.81401L40.0622 4.00801C39.9142 3.96801 39.7882 3.94201 39.6842 3.93001C39.5842 3.91401 39.4902 3.90601 39.4022 3.90601C39.1422 3.90601 38.9062 3.98801 38.6942 4.15201C38.4822 4.31201 38.3142 4.54401 38.1902 4.84801C38.0702 5.15201 38.0102 5.51801 38.0102 5.94601V9.00001H36.6302Z" fill="#9D3FF6"/>
<path d="M44.0837 9.14401C43.5797 9.14401 43.1357 9.05201 42.7517 8.86801C42.3677 8.68401 42.0477 8.43601 41.7917 8.12401C41.5357 7.81201 41.3437 7.45801 41.2157 7.06201C41.0877 6.66201 41.0237 6.24601 41.0237 5.81401C41.0237 5.15801 41.1557 4.59401 41.4197 4.12201C41.6837 3.65001 42.0457 3.28801 42.5057 3.03601C42.9697 2.78001 43.4957 2.65201 44.0837 2.65201C44.5157 2.65201 44.9037 2.74201 45.2477 2.92201C45.5917 3.09801 45.8717 3.34401 46.0877 3.66001C46.3037 3.97201 46.4357 4.33801 46.4837 4.75801C46.5357 5.17801 46.4817 5.62801 46.3217 6.10801H42.9137C42.9977 5.85201 43.1197 5.63601 43.2797 5.46001C43.4437 5.28401 43.6457 5.19601 43.8857 5.19601H45.1277C45.1597 4.92801 45.1317 4.68001 45.0437 4.45201C44.9597 4.22401 44.8257 4.04201 44.6417 3.90601C44.4577 3.77001 44.2397 3.70201 43.9877 3.70201C43.7237 3.70201 43.4757 3.77801 43.2437 3.93001C43.0117 4.07801 42.8237 4.30601 42.6797 4.61401C42.5397 4.92201 42.4697 5.31201 42.4697 5.78401C42.4697 6.24801 42.5437 6.65001 42.6917 6.99001C42.8437 7.33001 43.0537 7.59201 43.3217 7.77601C43.5897 7.96001 43.8977 8.05201 44.2457 8.05201C44.5217 8.05201 44.7897 8.02001 45.0497 7.95601C45.3137 7.88801 45.6177 7.77201 45.9617 7.60801L46.3337 8.60401C45.9217 8.80401 45.5277 8.94401 45.1517 9.02401C44.7797 9.10401 44.4237 9.14401 44.0837 9.14401Z" fill="#9D3FF6"/>
<path d="M49.5574 9.00001L47.2294 2.79601H48.7714L50.2654 7.36201L50.3554 7.69801L50.4394 7.36201L51.9214 2.79601H53.4334L51.1054 9.00001H49.5574Z" fill="#9D3FF6"/>
<path d="M54.4193 9.00001V2.79601H55.8953V9.00001H54.4193ZM55.1573 1.87801C54.9093 1.87801 54.6993 1.79401 54.5273 1.62601C54.3593 1.45401 54.2753 1.24401 54.2753 0.996008C54.2753 0.740008 54.3593 0.526008 54.5273 0.354008C54.6993 0.182008 54.9093 0.0960083 55.1573 0.0960083C55.4093 0.0960083 55.6193 0.182008 55.7873 0.354008C55.9552 0.526008 56.0393 0.740008 56.0393 0.996008C56.0393 1.24401 55.9552 1.45401 55.7873 1.62601C55.6193 1.79401 55.4093 1.87801 55.1573 1.87801Z" fill="#9D3FF6"/>
<path d="M60.4313 9.14401C59.9273 9.14401 59.4833 9.05201 59.0993 8.86801C58.7153 8.68401 58.3953 8.43601 58.1393 8.12401C57.8833 7.81201 57.6913 7.45801 57.5633 7.06201C57.4353 6.66201 57.3713 6.24601 57.3713 5.81401C57.3713 5.15801 57.5033 4.59401 57.7673 4.12201C58.0313 3.65001 58.3933 3.28801 58.8533 3.03601C59.3173 2.78001 59.8433 2.65201 60.4313 2.65201C60.8633 2.65201 61.2513 2.74201 61.5953 2.92201C61.9393 3.09801 62.2193 3.34401 62.4353 3.66001C62.6513 3.97201 62.7833 4.33801 62.8313 4.75801C62.8833 5.17801 62.8293 5.62801 62.6693 6.10801H59.2613C59.3453 5.85201 59.4673 5.63601 59.6273 5.46001C59.7913 5.28401 59.9933 5.19601 60.2333 5.19601H61.4753C61.5073 4.92801 61.4793 4.68001 61.3913 4.45201C61.3073 4.22401 61.1733 4.04201 60.9893 3.90601C60.8053 3.77001 60.5873 3.70201 60.3353 3.70201C60.0713 3.70201 59.8233 3.77801 59.5913 3.93001C59.3593 4.07801 59.1713 4.30601 59.0273 4.61401C58.8873 4.92201 58.8173 5.31201 58.8173 5.78401C58.8173 6.24801 58.8913 6.65001 59.0393 6.99001C59.1913 7.33001 59.4013 7.59201 59.6693 7.77601C59.9373 7.96001 60.2453 8.05201 60.5933 8.05201C60.8693 8.05201 61.1373 8.02001 61.3973 7.95601C61.6613 7.88801 61.9653 7.77201 62.3093 7.60801L62.6813 8.60401C62.2693 8.80401 61.8753 8.94401 61.4993 9.02401C61.1273 9.10401 60.7713 9.14401 60.4313 9.14401Z" fill="#9D3FF6"/>
<path d="M69.973 9.00001L67.783 2.79601H69.331L70.693 7.36201L70.777 7.69801L70.861 7.36201L72.211 2.79601H73.717L71.533 9.00001H69.973ZM65.995 9.00001L63.805 2.79601H65.347L66.709 7.36201L66.793 7.69801L66.877 7.36201L67.843 4.78201C67.967 4.97801 68.075 5.22801 68.167 5.53201C68.259 5.83601 68.309 6.16001 68.317 6.50401C68.325 6.84401 68.269 7.16801 68.149 7.47601L67.507 9.00001H65.995Z" fill="#9D3FF6"/>
</svg>
