<svg width="125" height="17" viewBox="0 0 125 17" fill="none" xmlns="http://www.w3.org/2000/svg">
<path d="M1.65731 15.299L2.25435 12.2371L2.35729 12.0103L2.08965 12.0309H0V10.433H2.56317L3.42785 5.91753L3.54108 5.64948L3.19109 5.68041H1.21467V4.05155H3.79843L4.39547 0.824743H6.41307L5.80573 4.05155H10.0983L10.7159 0.824743H12.7335L12.1056 4.05155H14.4114V5.65979H11.807L10.8909 10.4227H13.1864V12.0309H10.6233L9.99533 15.299H7.97773L8.56448 12.2887L8.66742 12.0103L8.37919 12.0309H4.98222C5.07144 11.7698 5.19496 11.5155 5.3528 11.268C5.5175 11.0206 5.73711 10.8179 6.01161 10.6598C6.28611 10.5017 6.6361 10.4227 7.06158 10.4227H8.8733L9.71739 5.97938L9.85122 5.64948L9.49093 5.68041H5.50721L3.6749 15.299H1.65731Z" fill="#9D3FF6"/>
<path d="M21.2373 15.5464C20.7364 15.5464 20.2629 15.433 19.8168 15.2062C19.3707 14.9794 19.0104 14.622 18.7359 14.134C18.4614 13.646 18.3242 13.0103 18.3242 12.2268V4.63918H20.8256V12.2783C20.8256 12.6701 20.9079 12.9931 21.0726 13.2474C21.2373 13.5017 21.5118 13.6289 21.8961 13.6289C22.0403 13.6289 22.1741 13.6117 22.2976 13.5773C22.4211 13.5361 22.5755 13.5052 22.7608 13.4845C23.1177 13.4364 23.4299 13.5223 23.6976 13.7423C23.9721 13.9553 24.226 14.2199 24.4593 14.5361C23.7593 14.9278 23.1554 15.1924 22.6476 15.3299C22.1398 15.4742 21.6697 15.5464 21.2373 15.5464ZM25.7769 15.299C25.4544 14.9278 25.2382 14.5601 25.1284 14.1959C25.0255 13.8316 24.974 13.4433 24.974 13.0309V4.63918H27.4857V12.701C27.4857 13.079 27.5097 13.4845 27.5578 13.9175C27.6127 14.3505 27.6984 14.811 27.8151 15.299H25.7769Z" fill="#9D3FF6"/>
<path d="M35.5981 15.5464C34.7334 15.5464 33.9716 15.3883 33.3128 15.0722C32.654 14.756 32.105 14.3299 31.6658 13.7938C31.2266 13.2577 30.8972 12.6495 30.6776 11.9691C30.458 11.2818 30.3482 10.567 30.3482 9.82474C30.3482 8.69759 30.5747 7.72852 31.0276 6.91753C31.4805 6.10653 32.1016 5.48454 32.8908 5.05155C33.6868 4.61168 34.5893 4.39175 35.5981 4.39175C36.3392 4.39175 37.0049 4.54639 37.5951 4.85567C38.1853 5.15808 38.6656 5.58076 39.0362 6.12371C39.4068 6.65979 39.6333 7.28866 39.7156 8.01031C39.8048 8.73196 39.7122 9.50515 39.4377 10.3299H33.5908C33.7349 9.89003 33.9442 9.5189 34.2187 9.21649C34.5001 8.91409 34.8466 8.76289 35.2584 8.76289H37.3892C37.4441 8.3024 37.3961 7.87629 37.2451 7.48454C37.101 7.09278 36.8711 6.78007 36.5554 6.54639C36.2397 6.31271 35.8657 6.19588 35.4334 6.19588C34.9804 6.19588 34.555 6.32646 34.1569 6.58763C33.7589 6.84192 33.4364 7.23368 33.1893 7.76289C32.9491 8.2921 32.829 8.9622 32.829 9.7732C32.829 10.5704 32.956 11.2612 33.2099 11.8454C33.4707 12.4296 33.831 12.8797 34.2907 13.1959C34.7505 13.512 35.279 13.6701 35.876 13.6701C36.3495 13.6701 36.8093 13.6151 37.2554 13.5052C37.7083 13.3883 38.2299 13.189 38.82 12.9072L39.4583 14.6186C38.7514 14.9622 38.0755 15.2027 37.4304 15.3402C36.7922 15.4777 36.1814 15.5464 35.5981 15.5464Z" fill="#9D3FF6"/>
<path d="M46.7801 15.5464C45.8399 15.5464 44.9649 15.3471 44.1551 14.9485C43.3522 14.543 42.7037 13.9278 42.2096 13.1031C41.7224 12.2783 41.4787 11.2302 41.4787 9.95876C41.4787 8.73539 41.7258 7.71134 42.2199 6.8866C42.714 6.06186 43.366 5.43986 44.1757 5.02062C44.9855 4.60137 45.8536 4.39175 46.7801 4.39175C47.1507 4.39175 47.5556 4.42955 47.9948 4.50515C48.4408 4.57388 48.8697 4.68728 49.2815 4.84536L48.6639 6.53608C48.3139 6.44674 47.9776 6.38144 47.6551 6.34021C47.3325 6.2921 47.0409 6.26804 46.7801 6.26804C46.2723 6.26804 45.8193 6.41237 45.4213 6.70103C45.0233 6.98282 44.7076 7.39863 44.4743 7.94845C44.2478 8.49141 44.1346 9.16151 44.1346 9.95876C44.1346 10.7629 44.2478 11.4399 44.4743 11.9897C44.7076 12.5326 45.0233 12.9485 45.4213 13.2371C45.8193 13.5258 46.2723 13.6701 46.7801 13.6701C47.0752 13.6701 47.3943 13.6289 47.7374 13.5464C48.0805 13.457 48.4786 13.3196 48.9315 13.134L49.5594 14.8247C49.0173 15.079 48.506 15.2612 48.0256 15.3711C47.5453 15.488 47.1301 15.5464 46.7801 15.5464Z" fill="#9D3FF6"/>
<path d="M50.1711 17V15.299H59.2915V17H50.1711Z" fill="#9D3FF6"/>
<path d="M61.3723 15.299V7.62887C61.3723 7.14777 61.3482 6.64948 61.3002 6.13402C61.2522 5.61856 61.1664 5.12027 61.0429 4.63918H62.9369C63.0879 4.78351 63.2217 4.99656 63.3384 5.27835C63.455 5.56014 63.5408 5.87285 63.5957 6.21649L63.6163 6.65979L63.8119 6.21649C64.0864 5.67354 64.457 5.24399 64.9236 4.92783C65.3903 4.61168 65.8638 4.45361 66.3442 4.45361C66.5432 4.45361 66.7388 4.47423 66.9309 4.51546C67.1231 4.54983 67.3324 4.60137 67.5589 4.6701L67.2603 6.72165C67.0064 6.65292 66.7903 6.60825 66.6118 6.58763C66.4403 6.56014 66.279 6.54639 66.128 6.54639C65.682 6.54639 65.2771 6.68728 64.9133 6.96907C64.5496 7.24399 64.2614 7.64261 64.0487 8.16495C63.8428 8.68728 63.7398 9.31615 63.7398 10.0515V15.299H61.3723Z" fill="#9D3FF6"/>
<path d="M74.1598 15.5464C73.2951 15.5464 72.5334 15.3883 71.8746 15.0722C71.2158 14.756 70.6667 14.3299 70.2275 13.7938C69.7883 13.2577 69.4589 12.6495 69.2393 11.9691C69.0197 11.2818 68.9099 10.567 68.9099 9.82474C68.9099 8.69759 69.1364 7.72852 69.5893 6.91753C70.0423 6.10653 70.6633 5.48454 71.4525 5.05155C72.2486 4.61168 73.151 4.39175 74.1598 4.39175C74.901 4.39175 75.5666 4.54639 76.1568 4.85567C76.747 5.15808 77.2274 5.58076 77.5979 6.12371C77.9685 6.65979 78.195 7.28866 78.2773 8.01031C78.3665 8.73196 78.2739 9.50515 77.9994 10.3299H72.1525C72.2966 9.89003 72.5059 9.5189 72.7804 9.21649C73.0618 8.91409 73.4083 8.76289 73.8201 8.76289H75.9509C76.0058 8.3024 75.9578 7.87629 75.8068 7.48454C75.6627 7.09278 75.4328 6.78007 75.1171 6.54639C74.8014 6.31271 74.4274 6.19588 73.9951 6.19588C73.5422 6.19588 73.1167 6.32646 72.7187 6.58763C72.3206 6.84192 71.9981 7.23368 71.751 7.76289C71.5108 8.2921 71.3907 8.9622 71.3907 9.7732C71.3907 10.5704 71.5177 11.2612 71.7716 11.8454C72.0324 12.4296 72.3927 12.8797 72.8525 13.1959C73.3123 13.512 73.8407 13.6701 74.4377 13.6701C74.9112 13.6701 75.371 13.6151 75.8171 13.5052C76.27 13.3883 76.7916 13.189 77.3818 12.9072L78.02 14.6186C77.3131 14.9622 76.6372 15.2027 75.9921 15.3402C75.3539 15.4777 74.7431 15.5464 74.1598 15.5464Z" fill="#9D3FF6"/>
<path d="M83.5507 15.299L79.5567 4.63918H82.2022L84.7654 12.4845L84.9198 13.0619L85.0639 12.4845L87.6065 4.63918H90.2005L86.2065 15.299H83.5507Z" fill="#9D3FF6"/>
<path d="M91.8919 15.299V4.63918H94.4242V15.299H91.8919ZM93.1581 3.06186C92.7326 3.06186 92.3723 2.91753 92.0772 2.62887C91.789 2.33333 91.6449 1.97251 91.6449 1.54639C91.6449 1.10653 91.789 0.738831 92.0772 0.443299C92.3723 0.147766 92.7326 0 93.1581 0C93.5904 0 93.9507 0.147766 94.2389 0.443299C94.5271 0.738831 94.6713 1.10653 94.6713 1.54639C94.6713 1.97251 94.5271 2.33333 94.2389 2.62887C93.9507 2.91753 93.5904 3.06186 93.1581 3.06186Z" fill="#9D3FF6"/>
<path d="M102.207 15.5464C101.342 15.5464 100.58 15.3883 99.9213 15.0722C99.2625 14.756 98.7135 14.3299 98.2743 13.7938C97.8351 13.2577 97.5057 12.6495 97.2861 11.9691C97.0665 11.2818 96.9567 10.567 96.9567 9.82474C96.9567 8.69759 97.1831 7.72852 97.636 6.91753C98.089 6.10653 98.71 5.48454 99.4992 5.05155C100.295 4.61168 101.198 4.39175 102.207 4.39175C102.948 4.39175 103.613 4.54639 104.204 4.85567C104.794 5.15808 105.274 5.58076 105.645 6.12371C106.015 6.65979 106.242 7.28866 106.324 8.01031C106.413 8.73196 106.321 9.50515 106.046 10.3299H100.199C100.343 9.89003 100.553 9.5189 100.827 9.21649C101.109 8.91409 101.455 8.76289 101.867 8.76289H103.998C104.053 8.3024 104.005 7.87629 103.854 7.48454C103.709 7.09278 103.48 6.78007 103.164 6.54639C102.848 6.31271 102.474 6.19588 102.042 6.19588C101.589 6.19588 101.163 6.32646 100.765 6.58763C100.367 6.84192 100.045 7.23368 99.7978 7.76289C99.5576 8.2921 99.4375 8.9622 99.4375 9.7732C99.4375 10.5704 99.5644 11.2612 99.8183 11.8454C100.079 12.4296 100.439 12.8797 100.899 13.1959C101.359 13.512 101.887 13.6701 102.484 13.6701C102.958 13.6701 103.418 13.6151 103.864 13.5052C104.317 13.3883 104.838 13.189 105.428 12.9072L106.067 14.6186C105.36 14.9622 104.684 15.2027 104.039 15.3402C103.401 15.4777 102.79 15.5464 102.207 15.5464Z" fill="#9D3FF6"/>
<path d="M118.577 15.299L114.819 4.63918H117.475L119.812 12.4845L119.956 13.0619L120.1 12.4845L122.416 4.63918H125L121.253 15.299H118.577ZM111.752 15.299L107.995 4.63918H110.64L112.977 12.4845L113.121 13.0619L113.265 12.4845L114.922 8.05155C115.135 8.38832 115.32 8.81787 115.478 9.34021C115.636 9.86254 115.722 10.4192 115.736 11.0103C115.749 11.5945 115.653 12.1512 115.447 12.6804L114.346 15.299H111.752Z" fill="#9D3FF6"/>
</svg>
